<svg width="32" height="32" viewBox="0 0 32 32" fill="none" xmlns="http://www.w3.org/2000/svg">
<g clip-path="url(#clip0_451_2138)">
<path d="M16.0627 0.5C7.50024 0.5 0.562744 7.4375 0.562744 16C0.562744 24.5625 7.50024 31.5 16.0627 31.5C24.6252 31.5 31.5627 24.5625 31.5627 16C31.5627 7.4375 24.6252 0.5 16.0627 0.5ZM12.969 23.925L5.11274 16.0688L12.969 8.2125L15.169 10.425L13.6565 11.9375L12.9627 11.2437L8.13774 16.0688L12.9627 20.8937L14.6252 19.2313L11.3065 15.925L12.8315 14.4L17.6565 19.225L12.969 23.925ZM19.1565 23.7875L16.9565 21.5875L18.4627 20.0625L19.1565 20.7563L23.9815 15.9312L19.1565 11.1062L17.5002 12.7625L20.819 16.0688L19.294 17.5938L14.469 12.7688L19.1565 8.08125L27.0127 15.9375L19.1565 23.7875Z" fill="#3248F3"/>
</g>
<defs>
<clipPath id="clip0_451_2138">
<rect width="32" height="32" fill="white"/>
</clipPath>
</defs>
</svg>
